<?xml version="1.0" standalone="no"?>
<!DOCTYPE svg PUBLIC "-//W3C//DTD SVG 20010904//EN"
 "http://www.w3.org/TR/2001/REC-SVG-20010904/DTD/svg10.dtd">
<svg version="1.0" xmlns="http://www.w3.org/2000/svg"
 width="24.000000pt" height="24.000000pt" viewBox="0 0 24.000000 24.000000"
 preserveAspectRatio="xMidYMid meet">

<g transform="translate(0.000000,24.000000) scale(0.100000,-0.100000)"
fill="#000000" stroke="none">
<path d="M36 188 c-3 -7 -7 -46 -10 -85 l-5 -73 99 0 99 0 -5 73 c-3 39 -7 78
-10 85 -2 8 -28 12 -84 12 -56 0 -82 -4 -84 -12z m154 -53 l0 -45 -70 0 -70 0
0 45 0 45 70 0 70 0 0 -45z m10 -75 c0 -6 -33 -10 -80 -10 -47 0 -80 4 -80 10
0 6 33 10 80 10 47 0 80 -4 80 -10z"/>
</g>
</svg>
